<!--?xml version="1.0" encoding="utf-8"?-->
<!-- Generator: Adobe Illustrator 19.1.1, SVG Export Plug-In . SVG Version: 6.00 Build 0)  -->
<svg version="1.1" id="_x31_0" xmlns="http://www.w3.org/2000/svg" xmlns:xlink="http://www.w3.org/1999/xlink" x="0px" y="0px" viewBox="0 0 512 512" style="width: 16px; height: 16px; opacity: 1;" xml:space="preserve">
<style type="text/css">
	.st0{fill:#374149;}
</style>
<g>
	<path class="st0" d="M416.398,0H95.843C68.871,0,46.926,21.875,46.926,48.758V463.32c0,26.844,21.946,48.68,48.918,48.68h320.555
		c26.84,0,48.676-21.836,48.676-48.68V48.758C465.074,21.875,443.238,0,416.398,0z M349.809,467.894H95.843
		c-2.769,0-4.812-1.961-4.812-4.574V48.758c0-2.609,2.043-4.652,4.812-4.652h320.555c2.613,0,4.57,2.043,4.57,4.652V292.93v23.5
		v80.301l-42.926,42.926L349.809,467.894z" style="fill: rgb(75, 75, 75);"></path>
	<polygon class="st0" points="238.004,240.863 142.117,240.863 142.117,262.266 142.117,262.328 142.117,262.328 142.117,262.492 
		290.316,262.492 347.277,262.492 370.125,262.492 370.125,240.863 294.886,240.863 	" style="fill: rgb(75, 75, 75);"></polygon>
	<polygon class="st0" points="142.117,174.922 142.117,196.402 142.117,196.469 142.117,196.469 142.117,196.629 370.125,196.629 
		370.125,174.922 	" style="fill: rgb(75, 75, 75);"></polygon>
	<polygon class="st0" points="142.117,108.984 142.117,130.469 142.117,130.535 142.117,130.535 142.117,130.695 370.125,130.695 
		370.125,108.984 	" style="fill: rgb(75, 75, 75);"></polygon>
	<polygon class="st0" points="239.476,306.801 142.117,306.801 142.117,328.199 142.117,328.266 142.117,328.266 142.117,328.422 
		186.594,328.422 190.347,328.422 291.785,328.422 348.668,328.422 370.125,328.422 370.125,306.801 296.274,306.801 	" style="fill: rgb(75, 75, 75);"></polygon>
	<polygon class="st0" points="142.117,372.742 142.117,394.137 142.117,394.203 142.117,394.203 142.117,394.363 288.679,394.363 
		288.679,392.484 288.679,372.742 240.859,372.742 	" style="fill: rgb(75, 75, 75);"></polygon>
</g>
</svg>
